<svg width="24" height="24" viewBox="0 0 24 24" fill="none" xmlns="http://www.w3.org/2000/svg" aria-hidden="true">
  <path
    d="M8 3.75h8c1.35 0 2.35 1 2.35 2.35v11.8c0 1.35-1 2.35-2.35 2.35H8c-1.35 0-2.35-1-2.35-2.35V6.1c0-1.35 1-2.35 2.35-2.35Z"
    stroke="currentColor"
    stroke-width="1.7"
    stroke-linejoin="round"
  />
  <path
    d="m3.65 9.95-2.1 1.5 2.1 1.5M20.35 9.95l2.1 1.5-2.1 1.5"
    stroke="currentColor"
    stroke-width="1.7"
    stroke-linecap="round"
    stroke-linejoin="round"
  />
  <path
    d="m8.9 12.9 2.15 2.15 4.3-4.8"
    stroke="currentColor"
    stroke-width="1.95"
    stroke-linecap="round"
    stroke-linejoin="round"
  />
  <path
    d="M10.6 6.55h2.8"
    stroke="currentColor"
    stroke-width="1.5"
    stroke-linecap="round"
  />
  <g transform="translate(0.2 -1.3) rotate(45 18.2 4.55)">
    <path
      d="M16.4 4.55a2.5 2.5 0 0 1 3.6 0"
      stroke="currentColor"
      stroke-width="1.45"
      stroke-linecap="round"
    />
    <path
      d="M17.25 5.4a1.2 1.2 0 0 1 1.7 0"
      stroke="currentColor"
      stroke-width="1.45"
      stroke-linecap="round"
    />
    <path
      d="M18.1 6.6h.01"
      stroke="currentColor"
      stroke-width="1.9"
      stroke-linecap="round"
    />
  </g>
</svg>
